<svg width="70" height="70" viewBox="0 0 70 70" fill="none" xmlns="http://www.w3.org/2000/svg">
<g clip-path="url(#clip0_110_41)">
<path d="M70 35C70 15.67 54.33 0 35 0C15.67 0 0 15.67 0 35C0 54.33 15.67 70 35 70C54.33 70 70 54.33 70 35Z" fill="#F16565"/>
<path fill-rule="evenodd" clip-rule="evenodd" d="M33.527 24.6887C31.8999 24.6887 30.5809 26.0077 30.5809 27.6348V30.581H27.6347C26.0076 30.581 24.6886 31.9 24.6886 33.5271V36.4732C24.6886 38.1004 26.0076 39.4194 27.6347 39.4194H30.5809V42.3655C30.5809 43.9926 31.8999 45.3116 33.527 45.3116H36.4731C38.1003 45.3116 39.4192 43.9926 39.4192 42.3655V39.4194H42.3654C43.9925 39.4194 45.3115 38.1004 45.3115 36.4732V33.5271C45.3115 31.9 43.9925 30.581 42.3654 30.581H39.4192V27.6348C39.4192 26.0077 38.1003 24.6887 36.4731 24.6887H33.527ZM33.527 27.6348H36.4731V31.3175C36.4731 32.5378 37.4624 33.5271 38.6827 33.5271H42.3654V36.4732H38.6827C37.4624 36.4732 36.4731 37.4625 36.4731 38.6828V42.3655H33.527V38.6828C33.527 37.4625 32.5377 36.4732 31.3174 36.4732H27.6347V33.5271H31.3174C32.5377 33.5271 33.527 32.5378 33.527 31.3175V27.6348Z" fill="white"/>
<path fill-rule="evenodd" clip-rule="evenodd" d="M46.7845 18.7964C49.2253 18.7964 51.2037 20.7749 51.2037 23.2156V46.7846C51.2037 49.2253 49.2253 51.2038 46.7845 51.2038H23.2155C20.7749 51.2038 18.7963 49.2253 18.7963 46.7846V23.2156C18.7963 20.7749 20.7749 18.7964 23.2155 18.7964H46.7845ZM46.7845 21.7425C47.5981 21.7425 48.2576 22.402 48.2576 23.2156V46.7846C48.2576 47.5982 47.5981 48.2577 46.7845 48.2577H23.2155C22.402 48.2577 21.7425 47.5982 21.7425 46.7846V23.2156C21.7425 22.402 22.402 21.7425 23.2155 21.7425H46.7845Z" fill="white"/>
</g>
<defs>
<clipPath id="clip0_110_41">
<rect width="70" height="70" fill="white"/>
</clipPath>
</defs>
</svg>
