<svg width="70" height="70" viewBox="0 0 70 70" fill="none" xmlns="http://www.w3.org/2000/svg">
<g clip-path="url(#clip0_110_34)">
<path d="M70 35C70 15.67 54.33 0 35 0C15.67 0 0 15.67 0 35C0 54.33 15.67 70 35 70C54.33 70 70 54.33 70 35Z" fill="#2190FF"/>
<path d="M49.8595 33.2785L36.0772 19.652L36.0802 19.6584C34.5269 18.1015 32.4798 17.3198 30.4424 17.3233C28.408 17.3198 26.3607 18.1015 24.8073 19.6584C23.2509 21.2113 22.4695 23.2553 22.4724 25.2935C22.4695 27.3306 23.2508 29.3776 24.8073 30.9311L28.0599 34.1488C27.9619 34.1458 27.8637 34.1458 27.7659 34.1458C25.0983 34.1458 22.6751 34.8166 20.862 35.9522C19.957 36.5215 19.2008 37.2082 18.663 38.0087C18.1222 38.8062 17.8056 39.7235 17.8056 40.6918V46.1273C17.8056 47.0951 18.1222 48.013 18.663 48.8105C19.4731 50.0095 20.7605 50.9614 22.33 51.6298C23.9025 52.2971 25.7661 52.6733 27.7659 52.6768C30.4297 52.6733 32.8532 52.003 34.666 50.8669C35.5739 50.3006 36.3269 49.611 36.868 48.8105C37.4061 48.013 37.7224 47.0952 37.7224 46.1274V43.7007L38.5893 44.5587L38.5863 44.5518C40.1395 46.1081 42.1868 46.8903 44.2241 46.8869C46.2587 46.8903 48.3058 46.1081 49.8594 44.5552C51.4158 42.9983 52.1943 40.9547 52.1943 38.9167C52.1943 36.879 51.4159 34.8349 49.8595 33.2785ZM27.0919 27.59C25.7727 26.2678 25.7727 24.094 27.1107 22.7559C27.7561 22.1103 28.6166 21.7529 29.5345 21.7529L27.0919 27.59ZM19.3876 40.6918C19.3905 40.0686 19.5836 39.474 19.9732 38.8913C20.315 38.3824 20.8178 37.8948 21.4472 37.4616L33.5525 44.5457C33.2773 44.6972 32.9862 44.8398 32.679 44.9695C31.2902 45.5611 29.5944 45.9091 27.766 45.9091C25.323 45.9126 23.121 45.2859 21.5678 44.3082C20.7896 43.8181 20.1758 43.2448 19.7644 42.6314C19.6121 42.4032 19.4859 42.1726 19.3876 41.9354L19.3876 40.6918ZM36.1406 46.1274C36.1406 46.7507 35.9443 47.3457 35.5554 47.9274C34.9728 48.7947 33.9384 49.5981 32.5812 50.1744C31.227 50.7502 29.5627 51.0952 27.7659 51.0952C25.3675 51.0952 23.2066 50.4779 21.7039 49.5289C20.9507 49.0571 20.3621 48.5036 19.9732 47.9274C19.5837 47.3457 19.3905 46.7507 19.3876 46.1274V43.8844C20.1531 44.7319 21.1974 45.4379 22.4281 45.9596C23.9657 46.6121 25.7976 46.9853 27.7659 46.9853C30.3886 46.9853 32.7679 46.3234 34.5332 45.216C35.1532 44.8303 35.6943 44.3843 36.1406 43.8873V46.1274ZM36.1406 41.9354C36.1218 41.9829 36.1025 42.027 36.0772 42.0745C35.992 42.2646 35.8874 42.4477 35.7638 42.6313C35.4982 43.0299 35.1406 43.4066 34.7168 43.7576L22.7318 36.7463C22.8046 36.7146 22.8744 36.6765 22.947 36.6482C24.3011 36.0725 25.9655 35.7275 27.766 35.7275C28.4744 35.7275 29.1614 35.7814 29.816 35.8829C31.3791 36.12 32.7647 36.626 33.8246 37.2903C33.9543 37.3695 34.0778 37.4552 34.1947 37.5408C34.7674 37.9487 35.2199 38.4011 35.5394 38.873C35.5458 38.8789 35.5521 38.8853 35.5555 38.8913C35.9444 39.4739 36.1406 40.0685 36.1406 40.6917V41.9354H36.1406ZM48.5179 43.21C47.3283 44.3972 45.7808 44.9882 44.2242 44.9882C42.6645 44.9882 41.1175 44.3996 39.9277 43.21L39.9245 43.2071L37.7225 41.0304V40.6918C37.7225 39.7234 37.4062 38.8061 36.8681 38.0087C36.1913 37.0121 35.1884 36.1864 33.9669 35.5537C34.1189 35.1582 34.3117 34.7275 34.5491 34.2854C35.2199 33.0255 36.2261 31.6587 37.5582 30.6087C38.8836 29.5612 40.5134 28.8147 42.5287 28.7003L48.5147 34.62H48.5179C49.7043 35.8096 50.2959 37.3601 50.2959 38.9165C50.2959 40.4735 49.7043 42.024 48.5179 43.21Z" fill="white" stroke="black" stroke-width="0.000353535"/>
</g>
<defs>
<clipPath id="clip0_110_34">
<rect width="70" height="70" fill="white"/>
</clipPath>
</defs>
</svg>
