<svg width="70" height="70" viewBox="0 0 70 70" fill="none" xmlns="http://www.w3.org/2000/svg">
<g clip-path="url(#clip0_110_48)">
<path d="M70 35C70 15.67 54.33 0 35 0C15.67 0 0 15.67 0 35C0 54.33 15.67 70 35 70C54.33 70 70 54.33 70 35Z" fill="#8C7CFF"/>
<path d="M25.7749 31.9618H30.9398V36.2705H25.7749V31.9618ZM25.7749 42.0017H30.9398V37.693H25.7749V42.0017ZM25.7749 47.719H30.9398V43.4103H25.7749V47.719ZM32.4728 42.0017H37.6239V37.693H32.4589V42.0017H32.4728ZM32.4728 47.719H37.6239V43.4103H32.4589V47.719H32.4728ZM39.1706 43.4103V47.719H44.3355V43.4103H39.1706ZM52.5387 26.6035L35.0414 18.3728L17.558 26.6312L18.649 28.9098L20.8724 27.8464V47.7328H23.3858V27.7636H46.7246V47.7604H49.2381V27.8741L51.4615 28.9098L52.5387 26.6035Z" fill="white" stroke="white" stroke-width="0.1381"/>
</g>
<defs>
<clipPath id="clip0_110_48">
<rect width="70" height="70" fill="white"/>
</clipPath>
</defs>
</svg>
