<svg width="70" height="70" viewBox="0 0 70 70" fill="none" xmlns="http://www.w3.org/2000/svg">
<path d="M40.1012 1.44372C38.563 0.511613 36.7987 0.0187988 35 0.0187988C33.2013 0.0187988 31.4371 0.511613 29.8988 1.44372L6.93 15.365C5.48259 16.242 4.28574 17.4774 3.45501 18.9519C2.62428 20.4263 2.18773 22.0901 2.1875 23.7825V46.2175C2.18773 47.9099 2.62428 49.5736 3.45501 51.0481C4.28574 52.5225 5.48259 53.7579 6.93 54.635L29.8988 68.5562C31.4371 69.4883 33.2013 69.9811 35 69.9811C36.7987 69.9811 38.563 69.4883 40.1012 68.5562L63.07 54.635C64.5174 53.7579 65.7143 52.5225 66.545 51.0481C67.3757 49.5736 67.8123 47.9099 67.8125 46.2175V23.7825C67.8123 22.0901 67.3757 20.4263 66.545 18.9519C65.7143 17.4774 64.5174 16.242 63.07 15.365L40.1012 1.44372Z" fill="#7ED0EC"/>
<path d="M52.6768 51.5364H17.3232V52.6768H52.6768V51.5364Z" fill="white" stroke="white" stroke-width="0.0712773"/>
<path d="M41.2724 45.8342H40.132V44.6938H41.2724V43.5533H40.132V42.4129H41.2724V41.2725H40.132V40.2529C42.6375 38.5468 44.1235 35.7533 44.1235 32.7192C44.1235 27.6887 40.0305 23.5957 35 23.5957C29.9695 23.5957 25.8765 27.6887 25.8765 32.7192C25.8765 35.7533 27.3625 38.5468 29.868 40.2529V41.2725H28.7276V42.4129H29.868V43.5533H28.7276V44.6938H29.868V45.8342H28.7276V48.1151H17.3232V48.6853V49.2555V50.396H18.4637V49.2555H19.6041V50.396H20.7445V49.2555H21.885V50.396H23.0254V49.2555H24.1658V50.396H25.3063V49.2555H26.4467V50.396H27.5872V49.2555H28.7276V50.396H29.868V49.2555H31.0085V50.396H32.1489V49.2555H33.2893V50.396H34.4298V49.2555H35.5702V50.396H36.7106V49.2555H37.8511V50.396H38.9915V49.2555H40.132V50.396H41.2724V49.2555H42.4128V50.396H43.5533V49.2555H44.6937V50.396H45.8341V49.2555H46.9746V50.396H48.115V49.2555H49.2555V50.396H50.3959V49.2555H51.5363V50.396H52.6768V49.2555V48.6853V48.1151H41.2724V45.8342ZM27.0169 32.7192C27.0169 28.3171 30.5979 24.7361 35 24.7361C39.4021 24.7361 42.9831 28.3171 42.9831 32.7192C42.9831 35.4659 41.5906 37.9874 39.2567 39.4637L38.9915 39.6314V41.2725H35.5702V34.9191C36.5516 34.6642 37.2809 33.7792 37.2809 32.7192C37.2809 31.4613 36.2579 30.4383 35 30.4383C33.7421 30.4383 32.7191 31.4613 32.7191 32.7192C32.7191 33.7792 33.4484 34.6642 34.4298 34.9191V41.2725H31.0085V39.6314L30.7433 39.4637C28.4094 37.9874 27.0169 35.4659 27.0169 32.7192ZM31.0085 43.5533V42.4129H38.9915V43.5533H31.0085ZM38.9915 44.6938V45.8342H31.0085V44.6938H38.9915ZM35 33.8596C34.371 33.8596 33.8596 33.3481 33.8596 32.7192C33.8596 32.0902 34.371 31.5788 35 31.5788C35.6289 31.5788 36.1404 32.0902 36.1404 32.7192C36.1404 33.3481 35.6289 33.8596 35 33.8596ZM40.132 48.1151H29.868V46.9747H40.132V48.1151Z" fill="white" stroke="white" stroke-width="0.0712773"/>
<path d="M50.9661 17.3232C49.893 17.3232 48.935 17.8205 48.3077 18.5954L45.2639 20.4218V23.1982L45.6209 23.7336L43.2265 25.4095L43.88 26.3441L46.2533 24.6825L46.6085 25.2151L48.7537 25.9301L51.6943 24.1659H52.6768V23.0254H50.9661C49.7082 23.0254 48.6852 22.0025 48.6852 20.7446C48.6852 19.4867 49.7082 18.4637 50.9661 18.4637H52.6768V17.3232H50.9661ZM49.816 23.9629L48.6162 24.6825L47.3401 24.2571L46.4044 22.8526V21.0673L47.5665 20.3699C47.5528 20.4931 47.5448 20.618 47.5448 20.7446C47.5448 22.2271 48.4942 23.489 49.816 23.9629Z" fill="white" stroke="white" stroke-width="0.0712773"/>
<path d="M49.2554 20.7446C49.2554 21.6877 50.023 22.4552 50.9661 22.4552C51.9092 22.4552 52.6768 21.6877 52.6768 20.7446C52.6768 19.8014 51.9092 19.0339 50.9661 19.0339C50.023 19.0339 49.2554 19.8014 49.2554 20.7446ZM51.5363 20.7446C51.5363 21.0594 51.2809 21.3148 50.9661 21.3148C50.6513 21.3148 50.3959 21.0594 50.3959 20.7446C50.3959 20.4298 50.6513 20.1744 50.9661 20.1744C51.2809 20.1744 51.5363 20.4298 51.5363 20.7446Z" fill="white" stroke="white" stroke-width="0.0712773"/>
<path d="M21.3148 21.885H23.0254C23.7678 21.885 24.3951 21.4066 24.6311 20.7446H27.3135L29.4227 23.3818L30.3139 22.669L27.8609 19.6041H24.6306C24.3951 18.9421 23.7678 18.4637 23.0254 18.4637H21.3148V17.3232H17.3232V18.4637H20.1743V21.885H17.3232V23.0254H21.3148V21.885ZM21.3148 19.6041H23.0254C23.3402 19.6041 23.5956 19.8596 23.5956 20.1743C23.5956 20.4891 23.3402 20.7446 23.0254 20.7446H21.3148V19.6041Z" fill="white" stroke="white" stroke-width="0.0712773"/>
<path d="M32.287 23.0081L34.5676 22.438L34.2912 21.3323L32.0106 21.9024L32.287 23.0081Z" fill="white" stroke="white" stroke-width="0.0712773"/>
<path d="M32.6242 19.3468L31.6752 18.7141L30.5346 20.4251L31.4836 21.0578L32.6242 19.3468Z" fill="white" stroke="white" stroke-width="0.0712773"/>
<path d="M27.9902 25.1387L27.1838 24.3323L25.473 26.0431L26.2794 26.8495L27.9902 25.1387Z" fill="white" stroke="white" stroke-width="0.0712773"/>
<path d="M27.0169 22.4553H24.7361V23.5958H27.0169V22.4553Z" fill="white" stroke="white" stroke-width="0.0712773"/>
<path d="M21.885 42.9831C24.0854 42.9831 25.8765 41.192 25.8765 38.9915C25.8765 36.7911 24.0854 35 21.885 35C20.3397 35 18.9501 35.9049 18.2937 37.2809H17.3232V38.4213H21.885C22.1997 38.4213 22.4552 38.6768 22.4552 38.9915C22.4552 39.3063 22.1997 39.5617 21.885 39.5617H17.3232V40.7022H18.2937C18.9501 42.0781 20.3397 42.9831 21.885 42.9831ZM21.885 40.7022C22.8281 40.7022 23.5956 39.9347 23.5956 38.9915C23.5956 38.0484 22.8281 37.2809 21.885 37.2809H19.6098C20.139 36.5772 20.976 36.1404 21.885 36.1404C23.4571 36.1404 24.7361 37.4194 24.7361 38.9915C24.7361 40.5636 23.4571 41.8426 21.885 41.8426C20.976 41.8426 20.139 41.4058 19.6098 40.7022H21.885Z" fill="white" stroke="white" stroke-width="0.0712773"/>
<path d="M48.3106 37.2405L44.1235 37.9384V41.1852L48.3106 41.8832L48.9213 41.2725H52.6768V40.1321H48.4492L47.9194 40.6618L45.2639 40.2193V38.9044L47.9194 38.4619L48.4492 38.9916H52.6768V37.8512H48.9213L48.3106 37.2405Z" fill="white" stroke="white" stroke-width="0.0712773"/>
</svg>
