<svg width="57" height="57" viewBox="0 0 57 57" fill="none" xmlns="http://www.w3.org/2000/svg">
<path fill-rule="evenodd" clip-rule="evenodd" d="M30.169 3.60904C29.5621 3.56423 28.9537 3.54178 28.345 3.54174V0C29.0411 0.000339397 29.737 0.0263298 30.4311 0.0779184L30.169 3.60904ZM37.2667 5.20282C36.1314 4.76472 34.9654 4.41077 33.7781 4.14384L34.5537 0.687098C35.9102 0.991688 37.2454 1.39545 38.5417 1.89838L37.2667 5.20282ZM42.1189 7.71746C41.6125 7.37975 41.0939 7.06078 40.5641 6.76119L42.3101 3.67987C43.5211 4.36603 44.68 5.14022 45.7775 5.99617L43.5993 8.79061C43.1192 8.416 42.6253 8.05922 42.1189 7.721V7.71746ZM48.6144 14.0572C47.9139 13.0619 47.1409 12.1196 46.3017 11.238L48.8659 8.79415C49.8222 9.80355 50.7076 10.8838 51.5116 12.0171L48.6144 14.0572ZM51.2495 18.8456C51.017 18.2841 50.7642 17.7312 50.4916 17.1881L53.6544 15.5943C54.2798 16.8378 54.8125 18.1257 55.2481 19.4477L51.8835 20.5563C51.6931 19.9785 51.4817 19.4079 51.2495 18.8456ZM53.1266 27.7248C53.098 26.5076 52.9796 25.2942 52.7725 24.0945L56.2611 23.4924C56.4984 24.8595 56.6365 26.2479 56.6719 27.6362L53.1302 27.7248H53.1266ZM52.6627 33.172C52.7795 32.5699 52.8752 31.9713 52.9495 31.3657L56.4665 31.8013C56.2964 33.1831 56.0241 34.5505 55.6519 35.892L52.2377 34.9464C52.4006 34.362 52.5422 33.7705 52.6627 33.172ZM49.2909 41.5978C49.9426 40.5707 50.5164 39.494 51.0122 38.3819L54.2494 39.8163C53.6827 41.0913 53.0275 42.3168 52.2837 43.4926L49.2909 41.5978ZM45.8767 45.8656C46.3088 45.4335 46.7232 44.9872 47.1163 44.5268L49.8009 46.8396C49.3463 47.3667 48.8726 47.877 48.3807 48.3696L45.8767 45.8656Z" fill="white"/>
<path fill-rule="evenodd" clip-rule="evenodd" d="M28.345 3.54175C24.268 3.54204 20.2541 4.54777 16.6586 6.46984C13.0631 8.39192 9.99717 11.171 7.73227 14.561C5.46736 17.951 4.07342 21.8472 3.67392 25.9045C3.27441 29.9619 3.88166 34.0551 5.44189 37.8218C7.00212 41.5884 9.46717 44.9121 12.6187 47.4985C15.7702 50.0849 19.511 51.8542 23.5096 52.6497C27.5082 53.4452 31.6413 53.2422 35.5428 52.0589C39.4442 50.8755 42.9936 48.7483 45.8767 45.8656L48.3807 48.3696C45.0859 51.6662 41.0289 54.0992 36.5691 55.4531C32.1093 56.807 27.3844 57.0399 22.813 56.1313C18.2417 55.2226 13.965 53.2005 10.362 50.244C6.75894 47.2875 3.94075 43.4879 2.15713 39.1819C0.373503 34.8759 -0.320492 30.1965 0.136633 25.5582C0.593758 20.9199 2.18789 16.4659 4.77778 12.591C7.36767 8.71601 10.8734 5.53968 14.9842 3.34342C19.0951 1.14715 23.6842 -0.00123512 28.345 9.96853e-07V3.54175Z" fill="white"/>
<path fill-rule="evenodd" clip-rule="evenodd" d="M26.5742 10.6252C27.0439 10.6252 27.4943 10.8118 27.8264 11.1439C28.1585 11.476 28.3451 11.9265 28.3451 12.3961V30.8486L39.8486 37.4221C40.2446 37.6609 40.5314 38.0452 40.6478 38.4927C40.7642 38.9402 40.7009 39.4155 40.4715 39.817C40.242 40.2185 39.8647 40.5143 39.42 40.6412C38.9754 40.7682 38.4987 40.7162 38.0919 40.4963L25.6958 33.4128C25.4248 33.258 25.1995 33.0343 25.0428 32.7644C24.886 32.4944 24.8034 32.1879 24.8033 31.8757V12.3961C24.8033 11.9265 24.9899 11.476 25.322 11.1439C25.6541 10.8118 26.1045 10.6252 26.5742 10.6252Z" fill="white"/>
</svg>
